<?xml version="1.0" encoding="UTF-8"?>
<svg width="512px" height="512px" viewBox="0 0 512 512" version="1.1" xmlns="http://www.w3.org/2000/svg" xmlns:xlink="http://www.w3.org/1999/xlink">
    <!-- Generator: Sketch 60 (88103) - https://sketch.com -->
    <title>Artboard</title>
    <desc>Created with Sketch.</desc>
    <g id="Artboard" stroke="none" stroke-width="1" fill="none" fill-rule="evenodd">
        <g id="Group-30" transform="translate(79.000000, 155.000000)">
            <path d="M318.715737,75.3183144 C319.948266,66.5554659 318.837313,57.8263693 317.671859,49.2154045 C314.812726,28.1541913 300.081063,14.396055 280.050361,13.6366363 C272.382685,13.3497448 264.685663,13.805396 257.017988,13.5438185 C249.681502,13.2991169 246.172566,16.9612028 244.994536,23.8508184 C238.940887,59.210199 232.388357,94.4894187 226.892281,129.933179 C223.186308,153.808461 223.802573,154.209265 247.338019,157.20475 C270.730928,160.183359 289.990251,153.542664 302.193971,131.641871 C311.718825,114.538074 316.493829,96.11795 318.128818,76.735896 C318.107856,76.2085219 318.304893,75.7359947 318.715737,75.3183144 M353.876368,51.6117926 C353.89733,54.4849268 353.914099,57.3538421 353.930868,60.2185383 C354.937015,93.8059418 345.02647,123.347331 319.876997,146.14255 C298.135846,165.853686 272.458146,173.485844 242.797782,170.300504 C223.131808,168.191008 203.080145,169.722502 183.208749,169.435611 C180.022618,169.389202 175.293729,171.245559 174.186968,166.646856 C173.046668,161.908927 177.343753,159.947096 181.066495,158.900785 C187.300412,157.149903 189.568434,153.09967 190.930924,146.910407 C199.847899,106.34057 205.046323,65.1463222 211.83362,24.2220898 C213.497954,14.1766674 209.833904,11.4427599 201.168466,11.3246281 C196.762382,11.2655622 190.717118,12.1431128 190.926732,5.60789257 C191.136346,-0.783881874 197.194187,0.291961349 201.566733,0.27930437 C229.474724,0.211800481 257.40787,-0.425267466 285.286515,0.486035028 C305.187257,1.13575995 324.731655,4.00467521 339.354319,20.6823547 C347.3448,29.7995986 351.067542,40.3428622 353.876368,51.6117926" id="Fill-6" fill="#3399B2"></path>
            <path d="M123.305824,64.7056648 C123.112482,51.3626534 114.17673,44.7436792 103.362199,48.1939508 C96.3472547,50.4338957 89.9963974,53.9177875 84.4693442,58.9566129 C67.0139436,74.8631636 56.308693,94.8671744 48.793582,116.863181 C48.0034025,119.174569 46.7971179,121.637248 49.0121422,123.641851 C51.3028221,125.717898 53.4337848,123.92342 55.640403,122.898005 C75.3360464,113.732301 93.4429248,101.994654 109.410434,87.3824804 C116.408566,80.9820375 123.742945,73.7494949 123.305824,64.7056648 M189,126.411314 C176.00407,135.921624 160.948629,141.199994 146.712789,148.058512 C125.382147,158.333681 103.694242,168.222218 79.4214424,168.953457 C62.9747815,169.449355 47.6797652,166.183994 39.8620322,149.378104 C36.7223297,142.624649 33.0782574,142.086726 26.6685569,144.456949 C18.6280606,147.428133 10.6211889,151.33648 0,150.449747 C6.16171859,144.423329 13.2228968,142.84318 19.5737541,140.552805 C30.3588632,136.661268 34.7216626,130.311256 35.4656081,118.313052 C37.3864167,87.130329 50.634532,60.5031415 73.6506104,39.2677914 C86.8440857,27.097284 102.72333,22.3064074 120.92688,24.5253397 C135.42331,26.294602 144.745747,33.9768146 149.734806,47.055067 C154.454867,59.414688 150.268597,70.5093494 142.652612,80.2886211 C132.615651,93.1651524 119.46841,102.372881 105.148509,109.975246 C88.1932751,118.985455 71.1329642,127.785539 53.0807259,134.442336 C46.5785576,136.837774 45.5488025,140.767134 48.4279138,146.722109 C53.9339516,158.09834 67.9218093,163.406127 83.6833678,161.212409 C110.528454,157.476366 135.389686,147.865195 160.044966,137.291647 C169.510308,133.236212 179.337114,130.012877 189,126.411314" id="Fill-8" fill="#FB3225"></path>
        </g>
    </g>
</svg>