<svg xmlns="http://www.w3.org/2000/svg" viewBox="0 0 455 168.03"><defs><style>.cls-1{fill:#fcfcfc;}.cls-2{fill:#fb3225;}.cls-3{fill:#3399b2;}</style></defs><g id="Слой_2" data-name="Слой 2"><g id="Слой_1-2" data-name="Слой 1"><g id="rNoaYC.tif"><path class="cls-1" d="M227.51,167.94q-111.82,0-223.65.09C.63,168,0,167.4,0,164.19Q.2,83.78,0,3.36C0,.56.58,0,3.39,0Q227.51.14,451.63,0c2.8,0,3.38.56,3.37,3.36q-.17,80.64,0,161.3c0,2.79-.57,3.36-3.37,3.36Q339.57,167.87,227.51,167.94ZM171.76,73.77C170.14,64.69,165.24,58,156.89,54c-5.17-2.49-10.91-2.74-16.46-2.9-12.22-.34-24.47-.11-36.7-.1a22.52,22.52,0,0,0-3.29.15,2.26,2.26,0,0,0-2.07,2.2,2.31,2.31,0,0,0,2.2,2.56c1.07.16,2.19.06,3.28.15,3.71.3,4.36,1.3,4,5-.9,10.26-3.12,20.32-4.84,30.44-1.2,7.13-1.48,14.41-3.7,21.4-1.28,4-1.29,8.51-6.76,9.37-.28,0-.53.32-.76.52a2.37,2.37,0,0,0-.95,2.49c.33,1.13,1.36,1.12,2.31,1.15.15,0,.31,0,.47,0,13.58-.82,27.15,1.28,40.74,0,8.67-.79,15.91-4.76,22.1-10.39,11.21-10.19,15.86-23.23,15.3-38.22,3.9-.63,7.45-2.34,11.09-3.69,12.14-4.51,24.49-8.4,36.85-12.27,9.87-3.08,20-4.93,30.17-6.74a319.6,319.6,0,0,1,38.21-4,336.48,336.48,0,0,1,43.64.53,430.77,430.77,0,0,1,53.89,7.28,270.69,270.69,0,0,1,40.41,11.6c4.3,1.6,8.3,2.2,12.07-1.37,1.56-1.48,3.69-2.35,5.51-3.57,1.13-.76,3-1.27,2.87-2.74s-1.81-2.36-3.34-2.88A294.22,294.22,0,0,0,398.92,48.3c-14.32-2.51-28.67-4.59-43.12-5.93A280.71,280.71,0,0,0,308.87,42c-5.93.45-11.94.56-17.75,1.49-11.57,1.84-23.22,3-34.79,4.91-18.88,3-37.36,7.42-55.26,14.14C191.28,66.22,181.53,70,171.76,73.77ZM48.14,122.84c-5.83-.07-10-1.4-12.67-5.74-2.15-3.5-1.73-4.8,2.07-6.3a228.7,228.7,0,0,0,23.3-11.06,54.07,54.07,0,0,0,16.42-13c7.46-9,3.68-22-7.33-24.68-7.89-2-15.51-.57-21.72,4.44-11.72,9.47-18.59,22.07-19.1,37.09-.21,6.11-2.85,8.57-7.44,10.64a13.18,13.18,0,0,1-1.83.39c-.66.19-1.12.69-.87,1.34.11.29.79.49,1.21.5,1.8,0,3.27-1,4.9-1.53,3.9-1.23,4.6-1.11,6,2.61,1.84,4.78,5.5,6.93,10.13,8.15,6.3,1.65,12.44.47,18.5-1.08,10.37-2.65,19.69-7.85,29.23-12.44,2.49-1.19,5.61-1.11,7.51-3.51.42-.53,1.37-.42,1.53-1.26-.62,0-1.38-.16-1.84.13C92.71,109.68,88.57,110.2,85,112a114.66,114.66,0,0,1-19.47,7.46A104.7,104.7,0,0,1,48.14,122.84ZM330,109.29c0,1.55-.08,3.12,0,4.67.54,8.39,5.75,14.14,14.05,14.88,12.2,1.08,22.17-3.87,29.5-13.15,6.31-8,8.13-17.8,7.15-27.83-.63-6.53-4.4-11.1-10.91-13.27-9.87-3.28-23.58,1.94-31,9.82C332.2,91.39,330.63,100.19,330,109.29Zm-151.06-.12c-.37,14.16,8.23,21.22,21.23,19a34.34,34.34,0,0,0,20.22-10.93c8.14-9.28,10.37-20.75,7.63-32.85-1-4.56-4.35-7.5-8.76-9-11.12-3.85-24.57,2-31.48,9.46C181.1,92,179.94,101.14,178.94,109.17ZM321.58,75.68v.06c-1.25,0-2.51.05-3.76,0-3.65-.16-4-.56-3.2-4.26s1.66-7.26,2.6-10.87c.35-1.32,1.44-2.62,0-3.82s-2.89-.7-4.42-.06a50.79,50.79,0,0,1-5.74,2c-3.54,1-5.3,2.73-5.38,6.89-.18,8.41-1.24,9.33-9,11.78-.45.14-.91.25-1.34.43-1.5.63-3.71.6-3.4,3.08.35,2.91,2.72,1.86,4.42,2.07a13.26,13.26,0,0,0,1.41,0c4.37.1,4.85.62,3.93,5.06-1.51,7.3-3.14,14.58-4.75,21.86-1,4.27-1.89,8.56-1.33,12.95.62,5,3.86,7.05,8.65,5.75a30.45,30.45,0,0,0,6-2.52,75.29,75.29,0,0,0,12.43-8.32c1.35-1.1,2.9-2.56,1.52-4.3-1.18-1.49-2.78-.49-4.14.45-1.67,1.16-3.44,2.17-5.18,3.22-1.34.81-2.79,1.82-4.36,1-1.72-.92-1-2.76-1-4.25a9.14,9.14,0,0,1,.19-2.33c1.88-8,3.76-16,5.24-24.14.57-3.1,2.36-4.93,6-4.46a37,37,0,0,0,6.57,0A4.57,4.57,0,0,0,328,78.07c-.17-3.14-2.49-2.54-4.51-2.39C322.84,75.72,322.21,75.68,321.58,75.68Zm-69.41,33.21c-.43-6.52,2-13.33,4.32-20.08,1.65-4.69,5.86-6.61,11.49-5.86,4.75.64,6,2.12,6.74,8,.16,1.33.36,2.52,2,2.69,1.44.15,2.22-.45,2.81-1.85,1.17-2.78,1.34-5.77,2.2-8.61,1.85-6.11,1.44-6.69-4.84-8.1a22.72,22.72,0,0,0-2.32-.33C261.69,73.26,252.43,80.33,245,89c-6.49,7.53-7.79,17.64-6.7,27.49,1,8.86,6,12.63,15.06,12.63s15.88-5.2,23-9.66c1.55-1,4.05-2.37,2.34-4.78-2-2.82-3.77-.3-5.48.84-.26.17-.47.41-.73.58a27.09,27.09,0,0,1-11.77,4.35C255.2,121.06,252.17,117.17,252.17,108.89ZM412.12,80c0-4.68-2.41-7.13-5.8-5.86-6.54,2.47-11.71,7.1-17.1,11.34a2.2,2.2,0,0,0-.29,3.34c1,1.22,2.14,1,3.3.17.38-.28.82-.46,1.21-.72,1-.67,1.95-1.83,3.33-1.21,1.68.77,1.13,2.43,1.08,3.74-.24,6.41-1.74,12.62-3.14,18.84-1.16,5.16-2.52,10.28-3.91,15.38-.55,2,.07,3.3,2.07,3.14a76.09,76.09,0,0,0,9.21-1.48c2.21-.46,2.9-2.34,3-4.26.2-3.47,1.33-6.72,2.09-10a51.93,51.93,0,0,1,7.86-18.85c2.63-3.73,5.39-4.58,9.76-3.41,3.49.93,4,.65,4.73-2.93.63-3.2.52-6.48,1.39-9.68.66-2.41-.91-3.74-3.54-3.46a12.46,12.46,0,0,0-9.09,5.16c-1.75,2.38-3.75,4.59-5,7.33a1.29,1.29,0,0,1-1.55.75c-.64-.22-.72-.93-.66-1.57C411.28,83.66,412.51,81.83,412.12,80Z"/><path class="cls-2" d="M171.76,73.77c9.77-3.75,19.52-7.55,29.31-11.23,17.9-6.72,36.38-11.1,55.26-14.14,11.57-1.87,23.22-3.07,34.79-4.91,5.81-.93,11.82-1,17.75-1.49a280.71,280.71,0,0,1,46.93.37c14.45,1.34,28.8,3.42,43.12,5.93A294.22,294.22,0,0,1,443.16,60c1.53.52,3.2,1.31,3.34,2.88s-1.74,2-2.87,2.74c-1.82,1.22-3.95,2.09-5.51,3.57-3.77,3.57-7.77,3-12.07,1.37a270.69,270.69,0,0,0-40.41-11.6,430.77,430.77,0,0,0-53.89-7.28,336.48,336.48,0,0,0-43.64-.53,319.6,319.6,0,0,0-38.21,4c-10.17,1.81-20.3,3.66-30.17,6.74-12.36,3.87-24.71,7.76-36.85,12.27-3.64,1.35-7.19,3.06-11.09,3.69A10.77,10.77,0,0,1,171.76,73.77Z"/><path class="cls-3" d="M171.76,73.77a10.77,10.77,0,0,0,0,4.08c.56,15-4.09,28-15.3,38.22-6.19,5.63-13.43,9.6-22.1,10.39-13.59,1.25-27.16-.85-40.74,0-.16,0-.32,0-.47,0-1,0-2,0-2.31-1.15a2.37,2.37,0,0,1,.95-2.49c.23-.2.48-.48.76-.52,5.47-.86,5.48-5.37,6.76-9.37,2.22-7,2.5-14.27,3.7-21.4,1.72-10.12,3.94-20.18,4.84-30.44.33-3.68-.32-4.68-4-5-1.09-.09-2.21,0-3.28-.15a2.31,2.31,0,0,1-2.2-2.56,2.26,2.26,0,0,1,2.07-2.2,22.52,22.52,0,0,1,3.29-.15c12.23,0,24.48-.24,36.7.1,5.55.16,11.29.41,16.46,2.9C165.24,58,170.14,64.69,171.76,73.77ZM156,84.48a35.43,35.43,0,0,0-.82-13.31c-1.69-7.63-6.46-12.75-14.49-13.92-3.53-.52-7.19-.21-10.79-.2-5.83,0-6.36.57-7.32,6.11-1.42,8.25-3,16.47-4.48,24.72-1.66,9.43-3.22,18.88-4.85,28.31-.46,2.63.65,3.76,3.27,3.84,2.33.07,4.66.57,7,.76,11.71,1,18-.13,24.78-10.85C153,102.43,155,94,155.62,85.21A1,1,0,0,1,156,84.48Z"/><path class="cls-2" d="M48.14,122.84a104.7,104.7,0,0,0,17.36-3.43A114.66,114.66,0,0,0,85,112c3.6-1.75,7.74-2.27,11.21-4.46.46-.29,1.22-.1,1.84-.13-.16.84-1.11.73-1.53,1.26-1.9,2.4-5,2.32-7.51,3.51-9.54,4.59-18.86,9.79-29.23,12.44-6.06,1.55-12.2,2.73-18.5,1.08-4.63-1.22-8.29-3.37-10.13-8.15-1.44-3.72-2.14-3.84-6-2.61-1.63.51-3.1,1.56-4.9,1.53-.42,0-1.1-.21-1.21-.5-.25-.65.21-1.15.87-1.34a13.18,13.18,0,0,0,1.83-.39c4.59-2.07,7.23-4.53,7.44-10.64.51-15,7.38-27.62,19.1-37.09,6.21-5,13.83-6.39,21.72-4.44,11,2.73,14.79,15.7,7.33,24.68a54.07,54.07,0,0,1-16.42,13,228.7,228.7,0,0,1-23.3,11.06c-3.8,1.5-4.22,2.8-2.07,6.3C38.13,121.44,42.31,122.77,48.14,122.84ZM68.35,79.3c-.06-5.66-4-8.52-8.94-7a22.69,22.69,0,0,0-8.81,5.17c-7.49,7-12.21,15.65-15.43,25.22-.35,1-1,2.11-.14,3.06,1.15,1.24,2.24.17,3.34-.34A94.54,94.54,0,0,0,62.13,89.81C65.28,87,68.58,83.72,68.35,79.3Z"/><path class="cls-3" d="M330,109.29c.63-9.1,2.2-17.9,8.79-24.88,7.44-7.88,21.15-13.1,31-9.82,6.51,2.17,10.28,6.74,10.91,13.27,1,10-.84,19.84-7.15,27.83-7.33,9.28-17.3,14.23-29.5,13.15-8.3-.74-13.51-6.49-14.05-14.88C329.92,112.41,330,110.84,330,109.29Zm36.66-17.08c0-.64,0-1.88,0-3.12-.31-6.67-4.4-9.94-10.89-8.65-3.75.74-5.77,3.46-7.24,6.69a49.87,49.87,0,0,0-3.58,12c-1,5.61-2.46,11.25-.55,17,1.63,5,6,7.24,11,5.56,4.17-1.4,6.06-4.78,7.44-8.45A55.19,55.19,0,0,0,366.66,92.21Z"/><path class="cls-3" d="M178.94,109.17c1-8,2.16-17.22,8.84-24.39,6.91-7.43,20.36-13.31,31.48-9.46,4.41,1.53,7.72,4.47,8.76,9,2.74,12.1.51,23.57-7.63,32.85a34.34,34.34,0,0,1-20.22,10.93C187.17,130.39,178.57,123.33,178.94,109.17ZM215.18,93c-.16-2.24.78-5.57-.76-8.36-3.32-6-11.53-7.25-15.8.35a49.13,49.13,0,0,0-6.23,28.7c.68,7.46,8,10.76,14.06,6.8a12.76,12.76,0,0,0,4.81-6.67A55.81,55.81,0,0,0,215.18,93Z"/><path class="cls-3" d="M321.58,75.68c.63,0,1.26,0,1.88,0,2-.15,4.34-.75,4.51,2.39A4.57,4.57,0,0,1,323.48,83a37,37,0,0,1-6.57,0c-3.6-.47-5.39,1.36-6,4.46-1.48,8.11-3.36,16.13-5.24,24.14a9.14,9.14,0,0,0-.19,2.33c.05,1.49-.69,3.33,1,4.25,1.57.84,3-.17,4.36-1,1.74-1,3.51-2.06,5.18-3.22,1.36-.94,3-1.94,4.14-.45,1.38,1.74-.17,3.2-1.52,4.3a75.29,75.29,0,0,1-12.43,8.32,30.45,30.45,0,0,1-6,2.52c-4.79,1.3-8-.76-8.65-5.75-.56-4.39.38-8.68,1.33-12.95,1.61-7.28,3.24-14.56,4.75-21.86.92-4.44.44-5-3.93-5.06a13.26,13.26,0,0,1-1.41,0c-1.7-.21-4.07.84-4.42-2.07-.31-2.48,1.9-2.45,3.4-3.08.43-.18.89-.29,1.34-.43,7.77-2.45,8.83-3.37,9-11.78.08-4.16,1.84-5.9,5.38-6.89a50.79,50.79,0,0,0,5.74-2c1.53-.64,3-1.08,4.42.06s.38,2.5,0,3.82c-.94,3.61-1.82,7.23-2.6,10.87s-.45,4.1,3.2,4.26c1.25.06,2.51,0,3.76,0Z"/><path class="cls-3" d="M252.17,108.89c0,8.28,3,12.17,8.53,11.53a27.09,27.09,0,0,0,11.77-4.35c.26-.17.47-.41.73-.58,1.71-1.14,3.48-3.66,5.48-.84,1.71,2.41-.79,3.81-2.34,4.78-7.13,4.46-14,9.65-23,9.66s-14.07-3.77-15.06-12.63c-1.09-9.85.21-20,6.7-27.49,7.46-8.64,16.72-15.71,29.59-14.2a22.72,22.72,0,0,1,2.32.33c6.28,1.41,6.69,2,4.84,8.1-.86,2.84-1,5.83-2.2,8.61-.59,1.4-1.37,2-2.81,1.85-1.63-.17-1.83-1.36-2-2.69-.71-5.9-2-7.38-6.74-8-5.63-.75-9.84,1.17-11.49,5.86C254.12,95.56,251.74,102.37,252.17,108.89Z"/><path class="cls-3" d="M412.12,80c.39,1.87-.84,3.7-1,5.71-.06.64,0,1.35.66,1.57a1.29,1.29,0,0,0,1.55-.75c1.23-2.74,3.23-4.95,5-7.33A12.46,12.46,0,0,1,427.39,74c2.63-.28,4.2,1,3.54,3.46-.87,3.2-.76,6.48-1.39,9.68-.72,3.58-1.24,3.86-4.73,2.93-4.37-1.17-7.13-.32-9.76,3.41a51.93,51.93,0,0,0-7.86,18.85c-.76,3.33-1.89,6.58-2.09,10-.12,1.92-.81,3.8-3,4.26a76.09,76.09,0,0,1-9.21,1.48c-2,.16-2.62-1.14-2.07-3.14,1.39-5.1,2.75-10.22,3.91-15.38,1.4-6.22,2.9-12.43,3.14-18.84,0-1.31.6-3-1.08-3.74-1.38-.62-2.31.54-3.33,1.21-.39.26-.83.44-1.21.72-1.16.86-2.3,1-3.3-.17a2.2,2.2,0,0,1,.29-3.34c5.39-4.24,10.56-8.87,17.1-11.34C409.71,72.83,412.1,75.28,412.12,80Z"/><path class="cls-1" d="M155.62,85.21C155,94,153,102.43,148.21,109.94c-6.78,10.72-13.07,11.81-24.78,10.85-2.29-.19-4.62-.69-7-.76-2.62-.08-3.73-1.21-3.27-3.84,1.63-9.43,3.19-18.88,4.85-28.31,1.45-8.25,3.06-16.47,4.48-24.72,1-5.54,1.49-6.1,7.32-6.11,3.6,0,7.26-.32,10.79.2,8,1.17,12.8,6.29,14.49,13.92A35.43,35.43,0,0,1,156,84.48c-.12-5.08-3.31-2-4.83-1.49-10.59,3.67-20.25,9.51-30.83,13.24a3.69,3.69,0,0,0-1.15.79c-.54.5-1.63.89-1.22,1.74s1.36.39,2.08.11c5-2,9.9-4.36,15.08-6C142,90.58,148.38,86.71,155.62,85.21Z"/><path class="cls-2" d="M155.62,85.21c-7.24,1.5-13.59,5.37-20.53,7.62-5.18,1.68-10,4.08-15.08,6-.72.28-1.68.7-2.08-.11s.68-1.24,1.22-1.74a3.69,3.69,0,0,1,1.15-.79c10.58-3.73,20.24-9.57,30.83-13.24,1.52-.53,4.71-3.59,4.83,1.49A1,1,0,0,0,155.62,85.21Z"/><path class="cls-1" d="M68.35,79.3c.23,4.42-3.07,7.66-6.22,10.51a94.54,94.54,0,0,1-23.76,15.65c-1.1.51-2.19,1.58-3.34.34-.88-1-.21-2,.14-3.06,3.22-9.57,7.94-18.22,15.43-25.22a22.69,22.69,0,0,1,8.81-5.17C64.35,70.78,68.29,73.64,68.35,79.3Z"/><path class="cls-1" d="M366.66,92.21a55.19,55.19,0,0,1-3.83,21.08c-1.38,3.67-3.27,7-7.44,8.45-5,1.68-9.37-.59-11-5.56-1.91-5.78-.42-11.42.55-17a49.87,49.87,0,0,1,3.58-12c1.47-3.23,3.49-5.95,7.24-6.69,6.49-1.29,10.58,2,10.89,8.65C366.71,90.33,366.66,91.57,366.66,92.21Z"/><path class="cls-1" d="M215.18,93a55.81,55.81,0,0,1-3.92,20.82,12.76,12.76,0,0,1-4.81,6.67c-6,4-13.38.66-14.06-6.8A49.13,49.13,0,0,1,198.62,85c4.27-7.6,12.48-6.33,15.8-.35C216,87.45,215,90.78,215.18,93Z"/></g></g></g></svg>